<svg xmlns="http://www.w3.org/2000/svg" xmlns:xlink="http://www.w3.org/1999/xlink" width="1600" zoomAndPan="magnify" viewBox="0 0 1200 374.999991" height="500" preserveAspectRatio="xMidYMid meet" version="1.0"><defs><clipPath id="1ef6a91484"><path d="M 1026 101 L 1177 101 L 1177 284 L 1026 284 Z M 1026 101 " clip-rule="nonzero"/></clipPath><clipPath id="6bf94f702d"><path d="M 899.308594 0 L 1423.601562 116.128906 L 1303.746094 657.261719 L 779.453125 541.136719 Z M 899.308594 0 " clip-rule="nonzero"/></clipPath><clipPath id="e533ec048b"><path d="M 899.308594 0 L 1423.601562 116.128906 L 1303.746094 657.261719 L 779.453125 541.136719 Z M 899.308594 0 " clip-rule="nonzero"/></clipPath><clipPath id="3c3a46256b"><path d="M 899.308594 0 L 1423.601562 116.128906 L 1303.746094 657.261719 L 779.453125 541.136719 Z M 899.308594 0 " clip-rule="nonzero"/></clipPath><clipPath id="f39e94697e"><path d="M 1017 92 L 1185 92 L 1185 293 L 1017 293 Z M 1017 92 " clip-rule="nonzero"/></clipPath><clipPath id="64784b6f56"><path d="M 899.308594 0 L 1423.601562 116.128906 L 1303.746094 657.261719 L 779.453125 541.136719 Z M 899.308594 0 " clip-rule="nonzero"/></clipPath><clipPath id="16665b9de0"><path d="M 899.308594 0 L 1423.601562 116.128906 L 1303.746094 657.261719 L 779.453125 541.136719 Z M 899.308594 0 " clip-rule="nonzero"/></clipPath><clipPath id="d0ddc3240d"><path d="M 899.308594 0 L 1423.601562 116.128906 L 1303.746094 657.261719 L 779.453125 541.136719 Z M 899.308594 0 " clip-rule="nonzero"/></clipPath><clipPath id="41da0631ba"><path d="M 1048 101 L 1128 101 L 1128 247 L 1048 247 Z M 1048 101 " clip-rule="nonzero"/></clipPath><clipPath id="301fbca910"><path d="M 899.308594 0 L 1423.601562 116.128906 L 1303.746094 657.261719 L 779.453125 541.136719 Z M 899.308594 0 " clip-rule="nonzero"/></clipPath><clipPath id="fcd8059a95"><path d="M 899.308594 0 L 1423.601562 116.128906 L 1303.746094 657.261719 L 779.453125 541.136719 Z M 899.308594 0 " clip-rule="nonzero"/></clipPath><clipPath id="98a93c5e72"><path d="M 899.308594 0 L 1423.601562 116.128906 L 1303.746094 657.261719 L 779.453125 541.136719 Z M 899.308594 0 " clip-rule="nonzero"/></clipPath><clipPath id="6ec02967b4"><path d="M 832 257 L 1200 257 L 1200 375 L 832 375 Z M 832 257 " clip-rule="nonzero"/></clipPath><clipPath id="ca3477f2b1"><path d="M 899.308594 0 L 1423.601562 116.128906 L 1303.746094 657.261719 L 779.453125 541.136719 Z M 899.308594 0 " clip-rule="nonzero"/></clipPath><clipPath id="157d4ed2b9"><path d="M 899.308594 0 L 1423.601562 116.128906 L 1303.746094 657.261719 L 779.453125 541.136719 Z M 899.308594 0 " clip-rule="nonzero"/></clipPath><clipPath id="2e5e4642f1"><path d="M 899.308594 0 L 1423.601562 116.128906 L 1303.746094 657.261719 L 779.453125 541.136719 Z M 899.308594 0 " clip-rule="nonzero"/></clipPath><clipPath id="1301d0cc85"><path d="M 823 249 L 1200 249 L 1200 375 L 823 375 Z M 823 249 " clip-rule="nonzero"/></clipPath><clipPath id="85817fdca5"><path d="M 899.308594 0 L 1423.601562 116.128906 L 1303.746094 657.261719 L 779.453125 541.136719 Z M 899.308594 0 " clip-rule="nonzero"/></clipPath><clipPath id="9ed0ad58a8"><path d="M 899.308594 0 L 1423.601562 116.128906 L 1303.746094 657.261719 L 779.453125 541.136719 Z M 899.308594 0 " clip-rule="nonzero"/></clipPath><clipPath id="6982b27d51"><path d="M 899.308594 0 L 1423.601562 116.128906 L 1303.746094 657.261719 L 779.453125 541.136719 Z M 899.308594 0 " clip-rule="nonzero"/></clipPath><clipPath id="5b8e1e83ee"><path d="M 1072 338 L 1200 338 L 1200 375 L 1072 375 Z M 1072 338 " clip-rule="nonzero"/></clipPath><clipPath id="2bc93023c6"><path d="M 899.308594 0 L 1423.601562 116.128906 L 1303.746094 657.261719 L 779.453125 541.136719 Z M 899.308594 0 " clip-rule="nonzero"/></clipPath><clipPath id="51b73230be"><path d="M 899.308594 0 L 1423.601562 116.128906 L 1303.746094 657.261719 L 779.453125 541.136719 Z M 899.308594 0 " clip-rule="nonzero"/></clipPath><clipPath id="d35817b0cf"><path d="M 899.308594 0 L 1423.601562 116.128906 L 1303.746094 657.261719 L 779.453125 541.136719 Z M 899.308594 0 " clip-rule="nonzero"/></clipPath><clipPath id="fd8196f035"><path d="M 1064 69 L 1146 69 L 1146 103 L 1064 103 Z M 1064 69 " clip-rule="nonzero"/></clipPath><clipPath id="4e4aa6df8c"><path d="M 899.308594 0 L 1423.601562 116.128906 L 1303.746094 657.261719 L 779.453125 541.136719 Z M 899.308594 0 " clip-rule="nonzero"/></clipPath><clipPath id="731e0375c0"><path d="M 899.308594 0 L 1423.601562 116.128906 L 1303.746094 657.261719 L 779.453125 541.136719 Z M 899.308594 0 " clip-rule="nonzero"/></clipPath><clipPath id="efc37b0aa8"><path d="M 899.308594 0 L 1423.601562 116.128906 L 1303.746094 657.261719 L 779.453125 541.136719 Z M 899.308594 0 " clip-rule="nonzero"/></clipPath><clipPath id="7ba9ed972b"><path d="M 1055 60 L 1154 60 L 1154 111 L 1055 111 Z M 1055 60 " clip-rule="nonzero"/></clipPath><clipPath id="183dedae9a"><path d="M 899.308594 0 L 1423.601562 116.128906 L 1303.746094 657.261719 L 779.453125 541.136719 Z M 899.308594 0 " clip-rule="nonzero"/></clipPath><clipPath id="82630957e2"><path d="M 899.308594 0 L 1423.601562 116.128906 L 1303.746094 657.261719 L 779.453125 541.136719 Z M 899.308594 0 " clip-rule="nonzero"/></clipPath><clipPath id="36289925a3"><path d="M 899.308594 0 L 1423.601562 116.128906 L 1303.746094 657.261719 L 779.453125 541.136719 Z M 899.308594 0 " clip-rule="nonzero"/></clipPath><clipPath id="ae3da5dc72"><path d="M 1141 90 L 1150 90 L 1150 105 L 1141 105 Z M 1141 90 " clip-rule="nonzero"/></clipPath><clipPath id="e1a857535f"><path d="M 899.308594 0 L 1423.601562 116.128906 L 1303.746094 657.261719 L 779.453125 541.136719 Z M 899.308594 0 " clip-rule="nonzero"/></clipPath><clipPath id="5b9df5d31f"><path d="M 899.308594 0 L 1423.601562 116.128906 L 1303.746094 657.261719 L 779.453125 541.136719 Z M 899.308594 0 " clip-rule="nonzero"/></clipPath><clipPath id="513abd3b0a"><path d="M 899.308594 0 L 1423.601562 116.128906 L 1303.746094 657.261719 L 779.453125 541.136719 Z M 899.308594 0 " clip-rule="nonzero"/></clipPath><clipPath id="aba4409275"><path d="M 1133 82 L 1158 82 L 1158 113 L 1133 113 Z M 1133 82 " clip-rule="nonzero"/></clipPath><clipPath id="41b0edae48"><path d="M 899.308594 0 L 1423.601562 116.128906 L 1303.746094 657.261719 L 779.453125 541.136719 Z M 899.308594 0 " clip-rule="nonzero"/></clipPath><clipPath id="bedde2c1a3"><path d="M 899.308594 0 L 1423.601562 116.128906 L 1303.746094 657.261719 L 779.453125 541.136719 Z M 899.308594 0 " clip-rule="nonzero"/></clipPath><clipPath id="7dd3200b74"><path d="M 899.308594 0 L 1423.601562 116.128906 L 1303.746094 657.261719 L 779.453125 541.136719 Z M 899.308594 0 " clip-rule="nonzero"/></clipPath><clipPath id="f370da51f5"><path d="M 1124 139 L 1200 139 L 1200 234 L 1124 234 Z M 1124 139 " clip-rule="nonzero"/></clipPath><clipPath id="51f4406a4a"><path d="M 899.308594 0 L 1423.601562 116.128906 L 1303.746094 657.261719 L 779.453125 541.136719 Z M 899.308594 0 " clip-rule="nonzero"/></clipPath><clipPath id="d817e5bfae"><path d="M 899.308594 0 L 1423.601562 116.128906 L 1303.746094 657.261719 L 779.453125 541.136719 Z M 899.308594 0 " clip-rule="nonzero"/></clipPath><clipPath id="92b708f033"><path d="M 899.308594 0 L 1423.601562 116.128906 L 1303.746094 657.261719 L 779.453125 541.136719 Z M 899.308594 0 " clip-rule="nonzero"/></clipPath><clipPath id="2b0c2e506b"><path d="M 1059 66 L 1084 66 L 1084 104 L 1059 104 Z M 1059 66 " clip-rule="nonzero"/></clipPath><clipPath id="cf9b70f9b0"><path d="M 899.308594 0 L 1423.601562 116.128906 L 1303.746094 657.261719 L 779.453125 541.136719 Z M 899.308594 0 " clip-rule="nonzero"/></clipPath><clipPath id="17691a6206"><path d="M 899.308594 0 L 1423.601562 116.128906 L 1303.746094 657.261719 L 779.453125 541.136719 Z M 899.308594 0 " clip-rule="nonzero"/></clipPath><clipPath id="8831f392c7"><path d="M 899.308594 0 L 1423.601562 116.128906 L 1303.746094 657.261719 L 779.453125 541.136719 Z M 899.308594 0 " clip-rule="nonzero"/></clipPath><clipPath id="3a92998305"><path d="M 1051 58 L 1092 58 L 1092 112 L 1051 112 Z M 1051 58 " clip-rule="nonzero"/></clipPath><clipPath id="ea516ce814"><path d="M 899.308594 0 L 1423.601562 116.128906 L 1303.746094 657.261719 L 779.453125 541.136719 Z M 899.308594 0 " clip-rule="nonzero"/></clipPath><clipPath id="e70e43f8ae"><path d="M 899.308594 0 L 1423.601562 116.128906 L 1303.746094 657.261719 L 779.453125 541.136719 Z M 899.308594 0 " clip-rule="nonzero"/></clipPath><clipPath id="273b8dccd8"><path d="M 899.308594 0 L 1423.601562 116.128906 L 1303.746094 657.261719 L 779.453125 541.136719 Z M 899.308594 0 " clip-rule="nonzero"/></clipPath><clipPath id="d0a5657d9b"><path d="M 1113 135 L 1200 135 L 1200 375 L 1113 375 Z M 1113 135 " clip-rule="nonzero"/></clipPath><clipPath id="9ea4239206"><path d="M 899.308594 0 L 1423.601562 116.128906 L 1303.746094 657.261719 L 779.453125 541.136719 Z M 899.308594 0 " clip-rule="nonzero"/></clipPath><clipPath id="7483661469"><path d="M 899.308594 0 L 1423.601562 116.128906 L 1303.746094 657.261719 L 779.453125 541.136719 Z M 899.308594 0 " clip-rule="nonzero"/></clipPath><clipPath id="d7f8e37c90"><path d="M 899.308594 0 L 1423.601562 116.128906 L 1303.746094 657.261719 L 779.453125 541.136719 Z M 899.308594 0 " clip-rule="nonzero"/></clipPath><clipPath id="b9695ff653"><path d="M 1104 127 L 1200 127 L 1200 375 L 1104 375 Z M 1104 127 " clip-rule="nonzero"/></clipPath><clipPath id="3319ff4829"><path d="M 899.308594 0 L 1423.601562 116.128906 L 1303.746094 657.261719 L 779.453125 541.136719 Z M 899.308594 0 " clip-rule="nonzero"/></clipPath><clipPath id="5a656cf304"><path d="M 899.308594 0 L 1423.601562 116.128906 L 1303.746094 657.261719 L 779.453125 541.136719 Z M 899.308594 0 " clip-rule="nonzero"/></clipPath><clipPath id="0601c62a82"><path d="M 899.308594 0 L 1423.601562 116.128906 L 1303.746094 657.261719 L 779.453125 541.136719 Z M 899.308594 0 " clip-rule="nonzero"/></clipPath><clipPath id="c6cde800da"><path d="M 1120 173 L 1200 173 L 1200 300 L 1120 300 Z M 1120 173 " clip-rule="nonzero"/></clipPath><clipPath id="d1f036de0d"><path d="M 899.308594 0 L 1423.601562 116.128906 L 1303.746094 657.261719 L 779.453125 541.136719 Z M 899.308594 0 " clip-rule="nonzero"/></clipPath><clipPath id="bef1f80e1e"><path d="M 899.308594 0 L 1423.601562 116.128906 L 1303.746094 657.261719 L 779.453125 541.136719 Z M 899.308594 0 " clip-rule="nonzero"/></clipPath><clipPath id="5592120730"><path d="M 899.308594 0 L 1423.601562 116.128906 L 1303.746094 657.261719 L 779.453125 541.136719 Z M 899.308594 0 " clip-rule="nonzero"/></clipPath><clipPath id="12aad0824b"><path d="M 1047 79 L 1155 79 L 1155 298 L 1047 298 Z M 1047 79 " clip-rule="nonzero"/></clipPath><clipPath id="2f75ef04df"><path d="M 899.308594 0 L 1423.601562 116.128906 L 1303.746094 657.261719 L 779.453125 541.136719 Z M 899.308594 0 " clip-rule="nonzero"/></clipPath><clipPath id="8e67adced8"><path d="M 899.308594 0 L 1423.601562 116.128906 L 1303.746094 657.261719 L 779.453125 541.136719 Z M 899.308594 0 " clip-rule="nonzero"/></clipPath><clipPath id="0384457288"><path d="M 899.308594 0 L 1423.601562 116.128906 L 1303.746094 657.261719 L 779.453125 541.136719 Z M 899.308594 0 " clip-rule="nonzero"/></clipPath><clipPath id="ac798d4342"><path d="M 1039 71 L 1163 71 L 1163 306 L 1039 306 Z M 1039 71 " clip-rule="nonzero"/></clipPath><clipPath id="0db65662e4"><path d="M 899.308594 0 L 1423.601562 116.128906 L 1303.746094 657.261719 L 779.453125 541.136719 Z M 899.308594 0 " clip-rule="nonzero"/></clipPath><clipPath id="f746d5139f"><path d="M 899.308594 0 L 1423.601562 116.128906 L 1303.746094 657.261719 L 779.453125 541.136719 Z M 899.308594 0 " clip-rule="nonzero"/></clipPath><clipPath id="3fcb33470e"><path d="M 899.308594 0 L 1423.601562 116.128906 L 1303.746094 657.261719 L 779.453125 541.136719 Z M 899.308594 0 " clip-rule="nonzero"/></clipPath><clipPath id="133067acae"><path d="M 1122 145 L 1200 145 L 1200 255 L 1122 255 Z M 1122 145 " clip-rule="nonzero"/></clipPath><clipPath id="68c27ecccd"><path d="M 899.308594 0 L 1423.601562 116.128906 L 1303.746094 657.261719 L 779.453125 541.136719 Z M 899.308594 0 " clip-rule="nonzero"/></clipPath><clipPath id="19823fa32e"><path d="M 899.308594 0 L 1423.601562 116.128906 L 1303.746094 657.261719 L 779.453125 541.136719 Z M 899.308594 0 " clip-rule="nonzero"/></clipPath><clipPath id="ab05bb486d"><path d="M 899.308594 0 L 1423.601562 116.128906 L 1303.746094 657.261719 L 779.453125 541.136719 Z M 899.308594 0 " clip-rule="nonzero"/></clipPath><clipPath id="db813dfdd1"><path d="M 1114 137 L 1200 137 L 1200 264 L 1114 264 Z M 1114 137 " clip-rule="nonzero"/></clipPath><clipPath id="748c8081e9"><path d="M 899.308594 0 L 1423.601562 116.128906 L 1303.746094 657.261719 L 779.453125 541.136719 Z M 899.308594 0 " clip-rule="nonzero"/></clipPath><clipPath id="ea51134036"><path d="M 899.308594 0 L 1423.601562 116.128906 L 1303.746094 657.261719 L 779.453125 541.136719 Z M 899.308594 0 " clip-rule="nonzero"/></clipPath><clipPath id="aa39aea78e"><path d="M 899.308594 0 L 1423.601562 116.128906 L 1303.746094 657.261719 L 779.453125 541.136719 Z M 899.308594 0 " clip-rule="nonzero"/></clipPath><clipPath id="a9e406c92c"><path d="M 1144 81 L 1198 81 L 1198 141 L 1144 141 Z M 1144 81 " clip-rule="nonzero"/></clipPath><clipPath id="256da92ed3"><path d="M 899.308594 0 L 1423.601562 116.128906 L 1303.746094 657.261719 L 779.453125 541.136719 Z M 899.308594 0 " clip-rule="nonzero"/></clipPath><clipPath id="25e285d9b2"><path d="M 899.308594 0 L 1423.601562 116.128906 L 1303.746094 657.261719 L 779.453125 541.136719 Z M 899.308594 0 " clip-rule="nonzero"/></clipPath><clipPath id="3a78717994"><path d="M 899.308594 0 L 1423.601562 116.128906 L 1303.746094 657.261719 L 779.453125 541.136719 Z M 899.308594 0 " clip-rule="nonzero"/></clipPath><clipPath id="ea43eef6d9"><path d="M 1136 73 L 1200 73 L 1200 149 L 1136 149 Z M 1136 73 " clip-rule="nonzero"/></clipPath><clipPath id="bbffb1b673"><path d="M 899.308594 0 L 1423.601562 116.128906 L 1303.746094 657.261719 L 779.453125 541.136719 Z M 899.308594 0 " clip-rule="nonzero"/></clipPath><clipPath id="fbb42517a1"><path d="M 899.308594 0 L 1423.601562 116.128906 L 1303.746094 657.261719 L 779.453125 541.136719 Z M 899.308594 0 " clip-rule="nonzero"/></clipPath><clipPath id="119fbf2818"><path d="M 899.308594 0 L 1423.601562 116.128906 L 1303.746094 657.261719 L 779.453125 541.136719 Z M 899.308594 0 " clip-rule="nonzero"/></clipPath><clipPath id="e1086a8a32"><path d="M 1149 119 L 1160 119 L 1160 121 L 1149 121 Z M 1149 119 " clip-rule="nonzero"/></clipPath><clipPath id="e461538d0a"><path d="M 899.308594 0 L 1423.601562 116.128906 L 1303.746094 657.261719 L 779.453125 541.136719 Z M 899.308594 0 " clip-rule="nonzero"/></clipPath><clipPath id="59e399c9e0"><path d="M 899.308594 0 L 1423.601562 116.128906 L 1303.746094 657.261719 L 779.453125 541.136719 Z M 899.308594 0 " clip-rule="nonzero"/></clipPath><clipPath id="bfabfed946"><path d="M 899.308594 0 L 1423.601562 116.128906 L 1303.746094 657.261719 L 779.453125 541.136719 Z M 899.308594 0 " clip-rule="nonzero"/></clipPath><clipPath id="b5088b803b"><path d="M 1148 118 L 1160 118 L 1160 121 L 1148 121 Z M 1148 118 " clip-rule="nonzero"/></clipPath><clipPath id="25088e8378"><path d="M 899.308594 0 L 1423.601562 116.128906 L 1303.746094 657.261719 L 779.453125 541.136719 Z M 899.308594 0 " clip-rule="nonzero"/></clipPath><clipPath id="920e299a5d"><path d="M 899.308594 0 L 1423.601562 116.128906 L 1303.746094 657.261719 L 779.453125 541.136719 Z M 899.308594 0 " clip-rule="nonzero"/></clipPath><clipPath id="e1ca777955"><path d="M 899.308594 0 L 1423.601562 116.128906 L 1303.746094 657.261719 L 779.453125 541.136719 Z M 899.308594 0 " clip-rule="nonzero"/></clipPath><clipPath id="941a3e3033"><path d="M 1153 94 L 1162 94 L 1162 103 L 1153 103 Z M 1153 94 " clip-rule="nonzero"/></clipPath><clipPath id="77d96e1709"><path d="M 899.308594 0 L 1423.601562 116.128906 L 1303.746094 657.261719 L 779.453125 541.136719 Z M 899.308594 0 " clip-rule="nonzero"/></clipPath><clipPath id="b7972dbadf"><path d="M 899.308594 0 L 1423.601562 116.128906 L 1303.746094 657.261719 L 779.453125 541.136719 Z M 899.308594 0 " clip-rule="nonzero"/></clipPath><clipPath id="567f746865"><path d="M 899.308594 0 L 1423.601562 116.128906 L 1303.746094 657.261719 L 779.453125 541.136719 Z M 899.308594 0 " clip-rule="nonzero"/></clipPath><clipPath id="ed8d9e06c3"><path d="M 1145 86 L 1170 86 L 1170 111 L 1145 111 Z M 1145 86 " clip-rule="nonzero"/></clipPath><clipPath id="8dccca68b8"><path d="M 899.308594 0 L 1423.601562 116.128906 L 1303.746094 657.261719 L 779.453125 541.136719 Z M 899.308594 0 " clip-rule="nonzero"/></clipPath><clipPath id="c5fc8f3d2a"><path d="M 899.308594 0 L 1423.601562 116.128906 L 1303.746094 657.261719 L 779.453125 541.136719 Z M 899.308594 0 " clip-rule="nonzero"/></clipPath><clipPath id="450c626b72"><path d="M 899.308594 0 L 1423.601562 116.128906 L 1303.746094 657.261719 L 779.453125 541.136719 Z M 899.308594 0 " clip-rule="nonzero"/></clipPath><clipPath id="a0b2b37a6d"><path d="M 1138 59 L 1198 59 L 1198 117 L 1138 117 Z M 1138 59 " clip-rule="nonzero"/></clipPath><clipPath id="e52607348e"><path d="M 899.308594 0 L 1423.601562 116.128906 L 1303.746094 657.261719 L 779.453125 541.136719 Z M 899.308594 0 " clip-rule="nonzero"/></clipPath><clipPath id="8aba52c29d"><path d="M 899.308594 0 L 1423.601562 116.128906 L 1303.746094 657.261719 L 779.453125 541.136719 Z M 899.308594 0 " clip-rule="nonzero"/></clipPath><clipPath id="3aea34fc28"><path d="M 899.308594 0 L 1423.601562 116.128906 L 1303.746094 657.261719 L 779.453125 541.136719 Z M 899.308594 0 " clip-rule="nonzero"/></clipPath><clipPath id="5f7b8eead2"><path d="M 1093 208 L 1115 208 L 1115 247 L 1093 247 Z M 1093 208 " clip-rule="nonzero"/></clipPath><clipPath id="7d2d7b5bd5"><path d="M 899.308594 0 L 1423.601562 116.128906 L 1303.746094 657.261719 L 779.453125 541.136719 Z M 899.308594 0 " clip-rule="nonzero"/></clipPath><clipPath id="6747d7a13f"><path d="M 899.308594 0 L 1423.601562 116.128906 L 1303.746094 657.261719 L 779.453125 541.136719 Z M 899.308594 0 " clip-rule="nonzero"/></clipPath><clipPath id="ddb034c136"><path d="M 899.308594 0 L 1423.601562 116.128906 L 1303.746094 657.261719 L 779.453125 541.136719 Z M 899.308594 0 " clip-rule="nonzero"/></clipPath><clipPath id="0233cc4f52"><path d="M 1066 340 L 1107 340 L 1107 375 L 1066 375 Z M 1066 340 " clip-rule="nonzero"/></clipPath><clipPath id="b5a808a771"><path d="M 899.308594 0 L 1423.601562 116.128906 L 1303.746094 657.261719 L 779.453125 541.136719 Z M 899.308594 0 " clip-rule="nonzero"/></clipPath><clipPath id="d8f8b74742"><path d="M 899.308594 0 L 1423.601562 116.128906 L 1303.746094 657.261719 L 779.453125 541.136719 Z M 899.308594 0 " clip-rule="nonzero"/></clipPath><clipPath id="edbd68c025"><path d="M 899.308594 0 L 1423.601562 116.128906 L 1303.746094 657.261719 L 779.453125 541.136719 Z M 899.308594 0 " clip-rule="nonzero"/></clipPath><clipPath id="bcb6a370f8"><path d="M 1146 344 L 1158 344 L 1158 375 L 1146 375 Z M 1146 344 " clip-rule="nonzero"/></clipPath><clipPath id="7d98e4cf74"><path d="M 899.308594 0 L 1423.601562 116.128906 L 1303.746094 657.261719 L 779.453125 541.136719 Z M 899.308594 0 " clip-rule="nonzero"/></clipPath><clipPath id="797e76c1d7"><path d="M 899.308594 0 L 1423.601562 116.128906 L 1303.746094 657.261719 L 779.453125 541.136719 Z M 899.308594 0 " clip-rule="nonzero"/></clipPath><clipPath id="571a5556bb"><path d="M 899.308594 0 L 1423.601562 116.128906 L 1303.746094 657.261719 L 779.453125 541.136719 Z M 899.308594 0 " clip-rule="nonzero"/></clipPath><clipPath id="ec9b10d0bc"><path d="M 1155 91 L 1165 91 L 1165 95 L 1155 95 Z M 1155 91 " clip-rule="nonzero"/></clipPath><clipPath id="b006958cb4"><path d="M 899.308594 0 L 1423.601562 116.128906 L 1303.746094 657.261719 L 779.453125 541.136719 Z M 899.308594 0 " clip-rule="nonzero"/></clipPath><clipPath id="6a664cdcb5"><path d="M 899.308594 0 L 1423.601562 116.128906 L 1303.746094 657.261719 L 779.453125 541.136719 Z M 899.308594 0 " clip-rule="nonzero"/></clipPath><clipPath id="4a1dffa5ac"><path d="M 899.308594 0 L 1423.601562 116.128906 L 1303.746094 657.261719 L 779.453125 541.136719 Z M 899.308594 0 " clip-rule="nonzero"/></clipPath><clipPath id="f498e51f8f"><path d="M 1154 96 L 1160 96 L 1160 102 L 1154 102 Z M 1154 96 " clip-rule="nonzero"/></clipPath><clipPath id="cfc398590f"><path d="M 899.308594 0 L 1423.601562 116.128906 L 1303.746094 657.261719 L 779.453125 541.136719 Z M 899.308594 0 " clip-rule="nonzero"/></clipPath><clipPath id="2ec677a1ae"><path d="M 899.308594 0 L 1423.601562 116.128906 L 1303.746094 657.261719 L 779.453125 541.136719 Z M 899.308594 0 " clip-rule="nonzero"/></clipPath><clipPath id="560471ff99"><path d="M 899.308594 0 L 1423.601562 116.128906 L 1303.746094 657.261719 L 779.453125 541.136719 Z M 899.308594 0 " clip-rule="nonzero"/></clipPath><clipPath id="47e2bc58fe"><path d="M 1172 121 L 1183 121 L 1183 141 L 1172 141 Z M 1172 121 " clip-rule="nonzero"/></clipPath><clipPath id="a139518bb1"><path d="M 899.308594 0 L 1423.601562 116.128906 L 1303.746094 657.261719 L 779.453125 541.136719 Z M 899.308594 0 " clip-rule="nonzero"/></clipPath><clipPath id="6817631e68"><path d="M 899.308594 0 L 1423.601562 116.128906 L 1303.746094 657.261719 L 779.453125 541.136719 Z M 899.308594 0 " clip-rule="nonzero"/></clipPath><clipPath id="ff9561c82f"><path d="M 899.308594 0 L 1423.601562 116.128906 L 1303.746094 657.261719 L 779.453125 541.136719 Z M 899.308594 0 " clip-rule="nonzero"/></clipPath><clipPath id="7729c87c53"><path d="M 874 316 L 1097 316 L 1097 375 L 874 375 Z M 874 316 " clip-rule="nonzero"/></clipPath><clipPath id="07d4acbd53"><path d="M 899.308594 0 L 1423.601562 116.128906 L 1303.746094 657.261719 L 779.453125 541.136719 Z M 899.308594 0 " clip-rule="nonzero"/></clipPath><clipPath id="2016f1953e"><path d="M 899.308594 0 L 1423.601562 116.128906 L 1303.746094 657.261719 L 779.453125 541.136719 Z M 899.308594 0 " clip-rule="nonzero"/></clipPath><clipPath id="7e0710749b"><path d="M 899.308594 0 L 1423.601562 116.128906 L 1303.746094 657.261719 L 779.453125 541.136719 Z M 899.308594 0 " clip-rule="nonzero"/></clipPath><clipPath id="29316dcfa2"><path d="M 1130 192 L 1160 192 L 1160 244 L 1130 244 Z M 1130 192 " clip-rule="nonzero"/></clipPath><clipPath id="06994701b6"><path d="M 899.308594 0 L 1423.601562 116.128906 L 1303.746094 657.261719 L 779.453125 541.136719 Z M 899.308594 0 " clip-rule="nonzero"/></clipPath><clipPath id="32bb23b61d"><path d="M 899.308594 0 L 1423.601562 116.128906 L 1303.746094 657.261719 L 779.453125 541.136719 Z M 899.308594 0 " clip-rule="nonzero"/></clipPath><clipPath id="7781873a38"><path d="M 899.308594 0 L 1423.601562 116.128906 L 1303.746094 657.261719 L 779.453125 541.136719 Z M 899.308594 0 " clip-rule="nonzero"/></clipPath><clipPath id="d34f8af237"><path d="M 1181 100 L 1185 100 L 1185 108 L 1181 108 Z M 1181 100 " clip-rule="nonzero"/></clipPath><clipPath id="ebe6cd1935"><path d="M 899.308594 0 L 1423.601562 116.128906 L 1303.746094 657.261719 L 779.453125 541.136719 Z M 899.308594 0 " clip-rule="nonzero"/></clipPath><clipPath id="cd34011808"><path d="M 899.308594 0 L 1423.601562 116.128906 L 1303.746094 657.261719 L 779.453125 541.136719 Z M 899.308594 0 " clip-rule="nonzero"/></clipPath><clipPath id="13dfd02459"><path d="M 899.308594 0 L 1423.601562 116.128906 L 1303.746094 657.261719 L 779.453125 541.136719 Z M 899.308594 0 " clip-rule="nonzero"/></clipPath><clipPath id="82c064d36d"><path d="M 0 0 L 153 0 L 153 112.5 L 0 112.5 Z M 0 0 " clip-rule="nonzero"/></clipPath></defs><rect x="-120" width="1440" fill="#ffffff" y="-37.499999" height="449.999989" fill-opacity="1"/><rect x="-120" width="1440" fill="#ffffff" y="-37.499999" height="449.999989" fill-opacity="1"/><rect x="-120" width="1440" fill="#ff9900" y="-37.499999" height="449.999989" fill-opacity="1"/><g clip-path="url(#1ef6a91484)"><g clip-path="url(#6bf94f702d)"><g clip-path="url(#e533ec048b)"><g clip-path="url(#3c3a46256b)"><path fill="#e28b62" d="M 1098.15625 101.152344 C 1080.410156 153.71875 1025.289062 199.628906 1026.140625 242.007812 C 1026.8125 275.519531 1043.949219 281.535156 1062.117188 283.824219 C 1119.59375 254.550781 1139.621094 218.570312 1174.765625 185.710938 L 1176.5 147.511719 L 1114.875 192.433594 L 1127.664062 101.546875 Z M 1098.15625 101.152344 " fill-opacity="1" fill-rule="evenodd"/></g></g></g></g><g clip-path="url(#f39e94697e)"><g clip-path="url(#64784b6f56)"><g clip-path="url(#16665b9de0)"><g clip-path="url(#d0ddc3240d)"><path stroke-linecap="butt" transform="matrix(0.567786, 0.12576, -0.125844, 0.568167, 866.078094, -22.074905)" fill="none" stroke-linejoin="miter" d="M 435.450564 120.501569 C 425.204356 215.288814 349.735409 312.797371 366.923879 383.581657 C 380.51337 439.555893 411.520548 443.280438 442.873313 440.369567 C 528.483223 369.897771 548.726908 302.089672 595.510904 233.900319 L 584.218111 169.167507 L 497.462486 267.434875 L 485.136905 110.19822 Z M 435.450564 120.501569 " stroke="#000000" stroke-width="1" stroke-opacity="1" stroke-miterlimit="10"/></g></g></g></g><g clip-path="url(#41da0631ba)"><g clip-path="url(#301fbca910)"><g clip-path="url(#fcd8059a95)"><g clip-path="url(#98a93c5e72)"><path fill="#000000" d="M 1125.554688 116.53125 L 1127.664062 101.546875 L 1098.15625 101.152344 C 1095.921875 107.660156 1093.253906 113.984375 1090.144531 120.125 L 1096.949219 122.53125 C 1076.617188 153.179688 1052.296875 201.355469 1048.007812 246.890625 L 1112.710938 174.339844 Z M 1125.554688 116.53125 " fill-opacity="1" fill-rule="evenodd"/></g></g></g></g><g clip-path="url(#6ec02967b4)"><g clip-path="url(#ca3477f2b1)"><g clip-path="url(#157d4ed2b9)"><g clip-path="url(#2e5e4642f1)"><path fill="#0a0ac6" d="M 1069.652344 403.472656 L 1004.238281 356.699219 L 927.394531 514.039062 C 890.371094 507.710938 857.914062 491.8125 832.125 461.933594 C 832.125 461.933594 907.0625 341.722656 945.8125 279.558594 C 946.578125 278.335938 947.394531 277.144531 948.269531 275.996094 C 949.144531 274.84375 950.070312 273.738281 951.046875 272.671875 C 952.023438 271.609375 953.046875 270.59375 954.117188 269.621094 C 955.1875 268.652344 956.304688 267.734375 957.457031 266.867188 C 958.613281 266.003906 959.808594 265.191406 961.039062 264.433594 C 962.269531 263.679688 963.53125 262.980469 964.828125 262.34375 C 966.125 261.703125 967.445312 261.128906 968.792969 260.609375 C 970.144531 260.09375 971.511719 259.640625 972.902344 259.253906 C 974.292969 258.863281 975.699219 258.539062 977.121094 258.28125 C 978.542969 258.023438 979.972656 257.828125 981.410156 257.703125 C 982.847656 257.578125 984.289062 257.515625 985.734375 257.523438 C 987.175781 257.53125 988.617188 257.605469 990.054688 257.746094 C 991.492188 257.886719 992.921875 258.09375 994.335938 258.367188 C 995.753906 258.640625 997.15625 258.976562 998.542969 259.378906 C 999.929688 259.78125 1001.296875 260.25 1002.640625 260.777344 C 1003.984375 261.308594 1005.300781 261.898438 1006.585938 262.550781 L 1116.925781 318.332031 L 1218.039062 368.167969 C 1214.808594 384.242188 1208.347656 391.566406 1192.652344 411.210938 C 1171.988281 437.082031 1138.125 480.015625 1124.613281 500.164062 L 1231.171875 518.65625 C 1234.980469 548.179688 1221.828125 588.492188 1208.40625 614.277344 L 1042.261719 566.910156 C 1041.449219 566.679688 1040.640625 566.421875 1039.84375 566.144531 C 1039.042969 565.867188 1038.25 565.570312 1037.46875 565.246094 C 1036.6875 564.925781 1035.914062 564.582031 1035.148438 564.214844 C 1034.386719 563.851562 1033.632812 563.460938 1032.890625 563.054688 C 1032.152344 562.648438 1031.421875 562.21875 1030.703125 561.769531 C 1029.984375 561.320312 1029.28125 560.851562 1028.589844 560.363281 C 1027.898438 559.875 1027.222656 559.367188 1026.558594 558.839844 C 1025.898438 558.3125 1025.25 557.765625 1024.617188 557.203125 C 1023.984375 556.640625 1023.371094 556.058594 1022.769531 555.460938 C 1022.171875 554.863281 1021.589844 554.25 1021.023438 553.621094 C 1020.460938 552.988281 1019.914062 552.34375 1019.386719 551.679688 C 1018.855469 551.019531 1018.347656 550.34375 1017.855469 549.652344 C 1017.367188 548.964844 1016.894531 548.257812 1016.445312 547.542969 C 1015.996094 546.828125 1015.5625 546.097656 1015.152344 545.355469 C 1014.746094 544.617188 1014.355469 543.863281 1013.988281 543.101562 C 1013.621094 542.339844 1013.273438 541.566406 1012.949219 540.78125 C 1012.625 540 1012.324219 539.210938 1012.046875 538.410156 C 1011.765625 537.609375 1011.507812 536.804688 1011.273438 535.992188 C 1011.039062 535.175781 1010.828125 534.355469 1010.640625 533.53125 C 1010.453125 532.707031 1010.289062 531.875 1010.148438 531.039062 C 1010.003906 530.207031 1009.886719 529.367188 1009.792969 528.527344 C 1009.699219 527.683594 1009.628906 526.839844 1009.582031 525.996094 C 1009.535156 525.148438 1009.511719 524.300781 1009.511719 523.457031 C 1009.511719 522.609375 1009.539062 521.761719 1009.585938 520.917969 C 1009.632812 520.070312 1009.707031 519.226562 1009.800781 518.386719 C 1009.898438 517.542969 1010.015625 516.707031 1010.160156 515.871094 C 1010.300781 515.035156 1010.46875 514.207031 1010.660156 513.382812 C 1010.847656 512.554688 1011.058594 511.734375 1011.296875 510.921875 C 1011.53125 510.109375 1011.789062 509.300781 1012.070312 508.503906 C 1012.351562 507.703125 1012.65625 506.914062 1012.980469 506.132812 C 1013.304688 505.351562 1013.652344 504.578125 1014.023438 503.816406 C 1014.390625 503.054688 1014.78125 502.300781 1015.191406 501.5625 Z M 1069.652344 403.472656 " fill-opacity="1" fill-rule="evenodd"/></g></g></g></g><g clip-path="url(#1301d0cc85)"><g clip-path="url(#85817fdca5)"><g clip-path="url(#9ed0ad58a8)"><g clip-path="url(#6982b27d51)"><path stroke-linecap="butt" transform="matrix(0.567786, 0.12576, -0.125844, 0.568167, 866.078094, -22.074905)" fill="none" stroke-linejoin="miter" d="M 500.015704 638.308277 L 372.801386 584.142906 L 302.29873 876.673626 C 237.788233 879.814805 177.385345 865.202597 122.978368 824.656961 C 122.978368 824.656961 204.087261 595.127217 246.027255 476.432443 C 246.857985 474.096635 247.78559 471.794385 248.827545 469.542452 C 249.868047 467.283965 251.011234 465.085252 252.254202 462.933205 C 253.498622 460.787711 254.839171 458.703443 256.274393 456.673846 C 257.711069 454.650802 259.245325 452.695537 260.857486 450.812406 C 262.477658 448.934376 264.182294 447.127029 265.966289 445.398368 C 267.751736 443.676261 269.609983 442.034293 271.550494 440.484119 C 273.489552 438.927392 275.492652 437.473367 277.561995 436.100933 C 279.639348 434.7336 281.766174 433.46532 283.957042 432.299743 C 286.146458 431.127613 288.3868 430.061088 290.678067 429.100169 C 292.969334 428.13925 295.296958 427.280287 297.663845 426.536386 C 300.030731 425.792486 302.427417 425.151992 304.856806 424.628013 C 307.279638 424.105486 309.727163 423.694371 312.192824 423.39612 C 314.658484 423.097869 317.135722 422.913933 319.611421 422.847216 C 322.093678 422.779048 324.572944 422.821544 327.050671 422.981259 C 329.528398 423.140974 331.998028 423.41936 334.450099 423.80476 C 336.903622 424.196713 339.333026 424.697133 341.733207 425.314024 L 547.721447 477.897477 L 736.008738 523.934891 C 736.562498 552.103691 728.439004 566.792737 709.393613 605.583595 C 684.321741 656.667413 643.43494 741.282553 628.242889 780.107398 L 814.016792 771.53468 C 831.389347 819.651999 824.298746 892.173327 811.353573 940.421727 L 514.805611 922.692211 C 513.355833 922.607474 511.902444 922.47541 510.461467 922.306223 C 509.013932 922.138487 507.57225 921.93508 506.140074 921.681443 C 504.709351 921.434359 503.283029 921.14505 501.861107 920.813516 C 500.447196 920.487084 499.036233 920.111873 497.639135 919.706093 C 496.248594 919.298861 494.862454 918.849404 493.488726 918.362824 C 492.114997 917.876244 490.760238 917.351089 489.417891 916.788811 C 488.075543 916.226533 486.752165 915.625681 485.441198 914.987705 C 484.13679 914.348278 482.844792 913.671727 481.573217 912.963156 C 480.301642 912.254585 479.055594 911.505987 477.82341 910.72682 C 476.597785 909.946202 475.392581 909.133562 474.2078 908.288901 C 473.028123 907.436235 471.870322 906.558102 470.738048 905.639943 C 469.600669 904.729789 468.496827 903.78471 467.413408 902.807611 C 466.337999 901.835614 465.28156 900.825042 464.261564 899.792653 C 463.241568 898.760264 462.241994 897.695854 461.277411 896.603074 C 460.320839 895.515396 459.384688 894.395696 458.484981 893.25418 C 457.585274 892.112664 456.713999 890.944229 455.877715 889.747424 C 455.042884 888.557172 454.244496 887.345103 453.481099 886.104664 C 452.711143 884.865676 451.979084 883.611425 451.283468 882.335358 C 450.586399 881.052737 449.927226 879.754852 449.305949 878.441704 C 448.684672 877.128557 448.099838 875.793592 447.5529 874.443365 C 447.000856 873.101142 446.491814 871.735651 446.02212 870.361451 C 445.550974 868.980697 445.119176 867.591233 444.726727 866.19306 C 444.332824 864.788334 443.978271 863.374898 443.664518 861.959306 C 443.349313 860.53716 443.080014 859.104853 442.844958 857.671842 C 442.608449 856.232277 442.4193 854.789105 442.264393 853.345229 C 442.114592 851.893347 442.000487 850.447315 441.932287 848.991121 C 441.85753 847.53638 441.831585 846.084584 441.84644 844.630633 C 441.853285 843.171579 441.902383 841.716924 442.000293 840.265214 C 442.091644 838.814957 442.223797 837.362543 442.399656 835.921081 C 442.574062 834.473065 442.792174 833.036001 443.045982 831.604786 C 443.299789 830.173571 443.595851 828.746754 443.935618 827.330888 C 444.268827 825.916474 444.64429 824.506458 445.058353 823.115399 Z M 500.015704 638.308277 " stroke="#000000" stroke-width="1" stroke-opacity="1" stroke-miterlimit="10"/></g></g></g></g><g clip-path="url(#5b8e1e83ee)"><g clip-path="url(#2bc93023c6)"><g clip-path="url(#51b73230be)"><g clip-path="url(#d35817b0cf)"><path stroke-linecap="round" transform="matrix(0.567786, 0.12576, -0.125844, 0.568167, 866.078094, -22.074905)" fill="none" stroke-linejoin="round" d="M 690.084246 481.525463 C 637.437055 576.526393 601.82552 709.619571 545.153295 816.786712 C 639.313851 835.924074 729.392458 837.016949 822.136564 823.906975 " stroke="#000000" stroke-width="1" stroke-opacity="1" stroke-miterlimit="4"/></g></g></g></g><g clip-path="url(#fd8196f035)"><g clip-path="url(#4e4aa6df8c)"><g clip-path="url(#731e0375c0)"><g clip-path="url(#efc37b0aa8)"><path fill="#00d7ff" d="M 1145.773438 91.375 L 1071.929688 69.121094 C 1070.957031 82.707031 1069.242188 89.675781 1064.078125 100.296875 L 1142.867188 102.277344 Z M 1145.773438 91.375 " fill-opacity="1" fill-rule="evenodd"/></g></g></g></g><g clip-path="url(#7ba9ed972b)"><g clip-path="url(#183dedae9a)"><g clip-path="url(#82630957e2)"><g clip-path="url(#36289925a3)"><path stroke-linecap="butt" transform="matrix(0.567786, 0.12576, -0.125844, 0.568167, 866.078094, -22.074905)" fill="none" stroke-linejoin="miter" d="M 511.757637 86.402925 L 379.508724 76.50744 C 382.927766 99.662538 382.64014 111.991525 377.919884 131.729941 L 510.932528 105.774188 Z M 511.757637 86.402925 " stroke="#000000" stroke-width="1" stroke-opacity="1" stroke-miterlimit="10"/></g></g></g></g><g clip-path="url(#ae3da5dc72)"><g clip-path="url(#e1a857535f)"><g clip-path="url(#5b9df5d31f)"><g clip-path="url(#513abd3b0a)"><path fill="#00d7ff" d="M 1141.667969 102.054688 L 1144.464844 91.203125 C 1144.503906 91.046875 1144.574219 90.90625 1144.667969 90.777344 C 1144.765625 90.652344 1144.882812 90.546875 1145.019531 90.464844 C 1145.15625 90.386719 1145.304688 90.332031 1145.460938 90.3125 C 1145.621094 90.289062 1145.773438 90.296875 1145.929688 90.335938 L 1148.617188 91.03125 C 1148.773438 91.070312 1148.914062 91.136719 1149.039062 91.234375 C 1149.167969 91.328125 1149.273438 91.445312 1149.351562 91.582031 C 1149.433594 91.722656 1149.484375 91.867188 1149.507812 92.027344 C 1149.53125 92.183594 1149.519531 92.339844 1149.480469 92.496094 L 1146.683594 103.347656 C 1146.644531 103.5 1146.574219 103.644531 1146.480469 103.769531 C 1146.382812 103.898438 1146.265625 104 1146.128906 104.082031 C 1145.992188 104.164062 1145.84375 104.214844 1145.6875 104.238281 C 1145.527344 104.261719 1145.375 104.25 1145.21875 104.210938 L 1142.53125 103.519531 C 1142.375 103.476562 1142.234375 103.410156 1142.109375 103.316406 C 1141.980469 103.21875 1141.875 103.101562 1141.796875 102.964844 C 1141.714844 102.828125 1141.664062 102.679688 1141.640625 102.523438 C 1141.617188 102.363281 1141.628906 102.207031 1141.667969 102.054688 Z M 1141.667969 102.054688 " fill-opacity="1" fill-rule="nonzero"/></g></g></g></g><g clip-path="url(#aba4409275)"><g clip-path="url(#41b0edae48)"><g clip-path="url(#bedde2c1a3)"><g clip-path="url(#7dd3200b74)"><path stroke-linecap="butt" transform="matrix(0.145318, -0.5635, 0.563117, 0.145247, 1016.667836, 372.697886)" fill="none" stroke-linejoin="miter" d="M 503.982869 91.921389 L 523.239618 91.918773 C 523.516374 91.916721 523.780543 91.973413 524.035271 92.074162 C 524.285177 92.183093 524.510966 92.332931 524.706139 92.525354 C 524.894812 92.719454 525.049516 92.943131 525.149076 93.194913 C 525.256811 93.451521 525.309195 93.708539 525.311258 93.985481 L 525.307736 98.758936 C 525.309799 99.035878 525.259657 99.298544 525.150811 99.548611 C 525.050141 99.803506 524.900414 100.029439 524.706452 100.21823 C 524.507667 100.415202 524.28897 100.561818 524.032538 100.669614 C 523.782606 100.775732 523.517586 100.823313 523.24083 100.825364 L 503.984081 100.82798 C 503.713825 100.828354 503.443156 100.77334 503.194927 100.670914 C 502.938522 100.563661 502.719233 100.412145 502.52406 100.219722 C 502.328887 100.027299 502.180682 99.801945 502.074623 99.55184 C 501.966888 99.295232 501.921003 99.036536 501.918941 98.759595 L 501.915963 93.987817 C 501.9204 93.709198 501.970542 93.446532 502.072888 93.198142 C 502.180057 92.94157 502.329785 92.715636 502.523747 92.526846 C 502.716032 92.331551 502.941229 92.183258 503.191161 92.077139 C 503.447592 91.969343 503.712613 91.921763 503.982869 91.921389 Z M 503.982869 91.921389 " stroke="#000000" stroke-width="1" stroke-opacity="1" stroke-miterlimit="10"/></g></g></g></g><g clip-path="url(#f370da51f5)"><g clip-path="url(#51f4406a4a)"><g clip-path="url(#d817e5bfae)"><g clip-path="url(#92b708f033)"><path fill="#000000" d="M 1176.066406 142.933594 L 1124.785156 178.882812 C 1124.785156 178.882812 1125.03125 213.527344 1138.414062 233.609375 L 1197.925781 184.394531 C 1222.355469 163.855469 1205.855469 127.90625 1176.066406 142.933594 Z M 1176.066406 142.933594 " fill-opacity="1" fill-rule="evenodd"/></g></g></g></g><g clip-path="url(#2b0c2e506b)"><g clip-path="url(#cf9b70f9b0)"><g clip-path="url(#17691a6206)"><g clip-path="url(#8831f392c7)"><path fill="#00d7ff" d="M 1083.125 72.46875 C 1083.183594 72.1875 1083.1875 71.90625 1083.136719 71.621094 C 1083.082031 71.335938 1082.980469 71.074219 1082.824219 70.832031 C 1082.667969 70.589844 1082.46875 70.386719 1082.234375 70.222656 C 1081.996094 70.058594 1081.738281 69.945312 1081.457031 69.886719 L 1069.558594 66.816406 C 1069.28125 66.734375 1069 66.707031 1068.714844 66.738281 C 1068.425781 66.765625 1068.15625 66.847656 1067.902344 66.984375 C 1067.648438 67.121094 1067.429688 67.300781 1067.246094 67.523438 C 1067.0625 67.746094 1066.929688 67.996094 1066.847656 68.273438 L 1059.332031 97.417969 C 1059.269531 97.699219 1059.265625 97.984375 1059.320312 98.265625 C 1059.371094 98.550781 1059.476562 98.8125 1059.632812 99.054688 C 1059.789062 99.296875 1059.984375 99.5 1060.222656 99.664062 C 1060.460938 99.828125 1060.71875 99.941406 1061 100.003906 L 1072.898438 103.070312 C 1073.171875 103.152344 1073.453125 103.179688 1073.742188 103.152344 C 1074.027344 103.121094 1074.300781 103.039062 1074.554688 102.902344 C 1074.808594 102.765625 1075.023438 102.585938 1075.207031 102.363281 C 1075.390625 102.140625 1075.523438 101.890625 1075.609375 101.617188 Z M 1083.125 72.46875 " fill-opacity="1" fill-rule="evenodd"/></g></g></g></g><g clip-path="url(#3a92998305)"><g clip-path="url(#ea516ce814)"><g clip-path="url(#e70e43f8ae)"><g clip-path="url(#273b8dccd8)"><path stroke-linecap="butt" transform="matrix(0.567786, 0.12576, -0.125844, 0.568167, 866.078094, -22.074905)" fill="none" stroke-linejoin="miter" d="M 399.548985 77.963691 C 399.542772 77.470053 399.444746 76.996738 399.253454 76.537191 C 399.055604 76.079095 398.787773 75.677741 398.435392 75.329477 C 398.08301 74.981213 397.673016 74.714453 397.218525 74.526294 C 396.757475 74.339587 396.282518 74.245335 395.788549 74.251544 L 374.670968 73.521888 C 374.174842 73.487324 373.692493 73.545962 373.225375 73.704357 C 372.750246 73.85765 372.328243 74.095437 371.952808 74.419168 C 371.577373 74.742899 371.276939 75.125657 371.051506 75.56744 C 370.826073 76.009224 370.696062 76.478012 370.661475 76.973806 L 368.881298 128.663563 C 368.880953 129.158653 368.980432 129.638522 369.176829 130.090064 C 369.368121 130.549611 369.64251 130.949514 369.994891 131.297778 C 370.347272 131.646042 370.750709 131.914253 371.211758 132.10096 C 371.672808 132.287668 372.147764 132.38192 372.643186 132.382264 L 393.759315 133.105366 C 394.248883 133.141382 394.731232 133.082744 395.206361 132.929451 C 395.673479 132.771056 396.10204 132.531818 396.477475 132.208086 C 396.852909 131.884355 397.146785 131.503049 397.372219 131.061266 C 397.597652 130.619482 397.727662 130.150694 397.770261 129.660002 Z M 399.548985 77.963691 " stroke="#000000" stroke-width="1" stroke-opacity="1" stroke-miterlimit="10"/></g></g></g></g><g clip-path="url(#d0a5657d9b)"><g clip-path="url(#9ea4239206)"><g clip-path="url(#7483661469)"><g clip-path="url(#d7f8e37c90)"><path fill="#ffc648" d="M 1172.605469 139.832031 C 1147.242188 159.363281 1160.316406 218.535156 1113.078125 316.574219 C 1113.078125 316.574219 1176.925781 360.359375 1219.335938 374.902344 C 1280.339844 215.804688 1247.359375 168.261719 1196.3125 136.003906 C 1187.90625 135.035156 1179.933594 136 1172.605469 139.832031 Z M 1172.605469 139.832031 " fill-opacity="1" fill-rule="evenodd"/></g></g></g></g><g clip-path="url(#b9695ff653)"><g clip-path="url(#3319ff4829)"><g clip-path="url(#5a656cf304)"><g clip-path="url(#0601c62a82)"><path stroke-linecap="butt" transform="matrix(0.567786, 0.12576, -0.125844, 0.568167, 866.078094, -22.074905)" fill="none" stroke-linejoin="miter" d="M 574.823988 157.730228 C 539.505259 199.923701 583.45847 294.340193 540.6081 476.378137 C 540.6081 476.378137 664.081426 526.112039 740.690228 534.751487 C 783.946274 245.157791 710.897426 177.648841 613.201384 142.497967 C 598.728191 143.996468 585.70196 148.577908 574.823988 157.730228 Z M 574.823988 157.730228 " stroke="#000000" stroke-width="1" stroke-opacity="1" stroke-miterlimit="10"/></g></g></g></g><g clip-path="url(#c6cde800da)"><g clip-path="url(#d1f036de0d)"><g clip-path="url(#bef1f80e1e)"><g clip-path="url(#5592120730)"><path fill="#000000" d="M 1120.789062 299.703125 L 1120.792969 299.703125 L 1205.3125 186.710938 L 1192.164062 173.460938 L 1152.367188 192.003906 C 1147.125 218.863281 1140.25 254.789062 1120.789062 299.703125 Z M 1120.789062 299.703125 " fill-opacity="1" fill-rule="nonzero"/></g></g></g></g><g clip-path="url(#12aad0824b)"><g clip-path="url(#2f75ef04df)"><g clip-path="url(#8e67adced8)"><g clip-path="url(#0384457288)"><path fill="#e28b62" d="M 1139.730469 86.414062 C 1139.980469 92.132812 1140.0625 97.484375 1139.945312 102.667969 C 1139.296875 131.527344 1132.5 155.3125 1114.089844 209.578125 L 1134.140625 195.964844 L 1154.082031 243.636719 C 1135.675781 264.796875 1094.320312 300.007812 1078.117188 296.882812 C 1059.332031 293.257812 1040.996094 269.46875 1049.949219 237 C 1060.839844 197.492188 1091.558594 154.382812 1105.203125 127.589844 C 1114.675781 108.054688 1118.546875 91.671875 1113.75 81.914062 C 1113.265625 79.875 1119.949219 77.335938 1121.4375 81.496094 C 1123.980469 78.332031 1127.261719 81.300781 1127.5625 83.066406 C 1127.796875 82.746094 1128.074219 82.46875 1128.390625 82.230469 C 1128.710938 81.996094 1129.058594 81.8125 1129.433594 81.679688 C 1129.808594 81.550781 1130.195312 81.480469 1130.59375 81.464844 C 1130.988281 81.453125 1131.378906 81.5 1131.761719 81.605469 C 1132.144531 81.710938 1132.503906 81.871094 1132.839844 82.085938 C 1133.171875 82.296875 1133.46875 82.558594 1133.722656 82.863281 C 1133.980469 83.167969 1134.183594 83.503906 1134.335938 83.867188 C 1134.492188 84.234375 1134.585938 84.617188 1134.625 85.011719 C 1136.039062 83.105469 1139.632812 84.160156 1139.730469 86.414062 Z M 1139.730469 86.414062 " fill-opacity="1" fill-rule="evenodd"/></g></g></g></g><g clip-path="url(#ac798d4342)"><g clip-path="url(#0db65662e4)"><g clip-path="url(#f746d5139f)"><g clip-path="url(#3fcb33470e)"><path stroke-linecap="butt" transform="matrix(0.567786, 0.12576, -0.125844, 0.568167, 866.078094, -22.074905)" fill="none" stroke-linejoin="miter" d="M 499.767558 80.325369 C 502.313821 89.827036 504.441546 98.775076 506.17235 107.51534 C 515.815217 156.174794 513.248813 198.605829 502.519596 296.490687 L 531.119982 266.200175 L 582.32594 338.770786 C 559.292844 381.111866 502.955963 455.554545 474.591057 456.332785 C 441.705342 457.231652 402.075695 424.133559 405.033112 366.332448 C 408.62582 296.001643 444.168012 212.260114 457.112235 162.238128 C 465.751298 125.943147 466.15831 97.018548 454.476512 82.430034 C 452.905076 79.189017 463.181764 72.445472 467.227362 78.872073 C 470.320091 72.618622 476.932811 76.380077 478.094339 79.230563 C 478.368713 78.606067 478.731204 78.037694 479.173801 77.520342 C 479.624409 77.008092 480.139807 76.570879 480.719994 76.208702 C 481.301634 75.853079 481.924737 75.591406 482.587849 75.41713 C 483.245856 75.250859 483.919094 75.184344 484.601003 75.219038 C 485.282913 75.253732 485.94581 75.388886 486.589694 75.624502 C 487.225568 75.855015 487.821302 76.18379 488.360876 76.600623 C 488.907008 77.016005 489.372948 77.504138 489.7638 78.057017 C 490.162664 78.614998 490.462408 79.222419 490.674697 79.869824 C 492.339868 76.146161 498.76548 76.580193 499.767558 80.325369 Z M 499.767558 80.325369 " stroke="#000000" stroke-width="1" stroke-opacity="1" stroke-miterlimit="10"/></g></g></g></g><g clip-path="url(#133067acae)"><g clip-path="url(#68c27ecccd)"><g clip-path="url(#19823fa32e)"><g clip-path="url(#ab05bb486d)"><path fill="#ffc648" d="M 1169.859375 152.351562 L 1122.570312 199.96875 C 1122.570312 199.96875 1130.027344 236.285156 1148.484375 254.777344 L 1201.808594 191.644531 C 1223.625 165.378906 1198.542969 130.832031 1169.859375 152.351562 Z M 1169.859375 152.351562 " fill-opacity="1" fill-rule="evenodd"/></g></g></g></g><g clip-path="url(#db813dfdd1)"><g clip-path="url(#748c8081e9)"><g clip-path="url(#ea51134036)"><g clip-path="url(#aa39aea78e)"><path stroke-linecap="butt" transform="matrix(0.567786, 0.12576, -0.125844, 0.568167, 866.078094, -22.074905)" fill="none" stroke-linejoin="miter" d="M 574.869119 179.755194 L 513.183863 277.217277 C 513.183863 277.217277 539.207652 335.375643 577.070929 359.541964 L 643.118833 233.806019 C 669.978627 181.632063 615.022852 132.992057 574.869119 179.755194 Z M 574.869119 179.755194 " stroke="#000000" stroke-width="1" stroke-opacity="1" stroke-miterlimit="10"/></g></g></g></g><g clip-path="url(#a9e406c92c)"><g clip-path="url(#256da92ed3)"><g clip-path="url(#25e285d9b2)"><g clip-path="url(#3a78717994)"><path fill="#e28b62" d="M 1144.367188 115.449219 L 1153.265625 83.566406 C 1153.265625 83.566406 1168.835938 80.527344 1176.292969 82.453125 C 1186.460938 85.074219 1192.019531 97.671875 1188.695312 110.558594 C 1188.144531 112.695312 1186.949219 114.746094 1186.019531 116.601562 L 1197.171875 136.226562 C 1188.726562 136.589844 1180.453125 137.980469 1172.355469 140.402344 C 1172.34375 134.984375 1173.957031 126.480469 1173.957031 126.480469 C 1173.957031 126.480469 1153.398438 134.351562 1146.808594 131.46875 C 1147.238281 126.410156 1147.957031 121.394531 1148.964844 116.417969 Z M 1144.367188 115.449219 " fill-opacity="1" fill-rule="evenodd"/></g></g></g></g><g clip-path="url(#ea43eef6d9)"><g clip-path="url(#bbffb1b673)"><g clip-path="url(#fbb42517a1)"><g clip-path="url(#119fbf2818)"><path stroke-linecap="butt" transform="matrix(0.567786, 0.12576, -0.125844, 0.568167, 866.078094, -22.074905)" fill="none" stroke-linejoin="miter" d="M 518.348854 127.315744 L 521.432342 70.518005 C 521.432342 70.518005 546.442704 59.633236 559.678164 60.093119 C 577.723477 60.712155 591.740108 79.782126 590.951186 102.637971 C 590.821048 106.4275 589.576873 110.31236 588.706019 113.770829 L 614.726954 142.552178 C 600.683503 146.299995 587.31063 151.707556 574.616345 158.779965 C 572.581972 149.694383 572.128232 134.827546 572.128232 134.827546 C 572.128232 134.827546 540.540036 155.672875 528.40459 153.285092 C 527.244913 144.638419 526.586511 135.956419 526.427932 127.232539 Z M 518.348854 127.315744 " stroke="#000000" stroke-width="1" stroke-opacity="1" stroke-miterlimit="10"/></g></g></g></g><g clip-path="url(#e1086a8a32)"><g clip-path="url(#e461538d0a)"><g clip-path="url(#59e399c9e0)"><g clip-path="url(#bfabfed946)"><path fill="#e28b62" d="M 1149.1875 119.136719 C 1152.925781 119.949219 1155.566406 120.273438 1159.238281 119.859375 " fill-opacity="1" fill-rule="nonzero"/></g></g></g></g><g clip-path="url(#b5088b803b)"><g clip-path="url(#25088e8378)"><g clip-path="url(#920e299a5d)"><g clip-path="url(#e1ca777955)"><path stroke-linecap="round" transform="matrix(0.567786, 0.12576, -0.125844, 0.568167, 866.078094, -22.074905)" fill="none" stroke-linejoin="round" d="M 527.812723 131.71115 C 534.390925 131.685147 538.94474 131.24783 544.955351 129.188652 " stroke="#000000" stroke-width="1" stroke-opacity="1" stroke-miterlimit="4"/></g></g></g></g><g clip-path="url(#941a3e3033)"><g clip-path="url(#77d96e1709)"><g clip-path="url(#b7972dbadf)"><g clip-path="url(#567f746865)"><path fill="#ffffff" d="M 1158.667969 95.015625 C 1159.160156 95.140625 1159.605469 95.355469 1160.007812 95.660156 C 1160.414062 95.964844 1160.742188 96.332031 1161 96.769531 C 1161.257812 97.203125 1161.421875 97.671875 1161.492188 98.171875 C 1161.5625 98.671875 1161.535156 99.167969 1161.40625 99.65625 C 1161.28125 100.148438 1161.066406 100.59375 1160.761719 101 C 1160.460938 101.402344 1160.089844 101.734375 1159.652344 101.988281 C 1159.21875 102.246094 1158.75 102.410156 1158.25 102.480469 C 1157.75 102.550781 1157.253906 102.523438 1156.765625 102.398438 C 1156.277344 102.273438 1155.832031 102.058594 1155.425781 101.753906 C 1155.023438 101.449219 1154.691406 101.078125 1154.4375 100.644531 C 1154.179688 100.207031 1154.015625 99.738281 1153.945312 99.238281 C 1153.875 98.738281 1153.902344 98.242188 1154.03125 97.753906 C 1154.15625 97.265625 1154.371094 96.820312 1154.675781 96.414062 C 1154.980469 96.011719 1155.347656 95.683594 1155.785156 95.425781 C 1156.21875 95.167969 1156.6875 95.003906 1157.1875 94.933594 C 1157.6875 94.863281 1158.179688 94.890625 1158.667969 95.015625 Z M 1158.667969 95.015625 " fill-opacity="1" fill-rule="evenodd"/></g></g></g></g><g clip-path="url(#ed8d9e06c3)"><g clip-path="url(#8dccca68b8)"><g clip-path="url(#c5fc8f3d2a)"><g clip-path="url(#450c626b72)"><path stroke-linecap="butt" transform="matrix(0.567786, 0.12576, -0.125844, 0.568167, 866.078094, -22.074905)" fill="none" stroke-linejoin="miter" d="M 534.759598 87.719262 C 535.632397 87.746079 536.459907 87.94105 537.248687 88.302723 C 538.044026 88.662944 538.731444 89.157056 539.326963 89.795262 C 539.921029 90.426914 540.370775 91.152388 540.674748 91.965129 C 540.978721 92.77787 541.117289 93.620346 541.082443 94.487457 C 541.055607 95.35967 540.860505 96.186625 540.500042 96.98143 C 540.144685 97.76823 539.645136 98.463192 539.005049 99.051758 C 538.372972 99.645425 537.647012 100.09487 536.833725 100.398638 C 536.020439 100.702407 535.177397 100.840883 534.311157 100.812614 C 533.444916 100.784344 532.617406 100.589373 531.822068 100.229152 C 531.033287 99.867479 530.337858 99.368266 529.75035 98.735162 C 529.154831 98.096956 528.705085 97.371482 528.401113 96.558741 C 528.09714 95.746 527.958571 94.903524 527.993418 94.036413 C 528.021706 93.170754 528.216808 92.343799 528.577271 91.548994 C 528.939186 90.760742 529.43363 90.073785 530.072264 89.478666 C 530.704341 88.884998 531.430301 88.435554 532.243588 88.131785 C 533.056874 87.828016 533.893358 87.690992 534.759598 87.719262 Z M 534.759598 87.719262 " stroke="#000000" stroke-width="1" stroke-opacity="1" stroke-miterlimit="10"/></g></g></g></g><g clip-path="url(#a0b2b37a6d)"><g clip-path="url(#e52607348e)"><g clip-path="url(#8aba52c29d)"><g clip-path="url(#3aea34fc28)"><path fill="#000000" d="M 1149.886719 86.449219 L 1171.421875 89.585938 C 1169.546875 93.664062 1171.8125 93.824219 1177.054688 97.160156 L 1174.667969 106.070312 L 1178.75 107.164062 L 1180.535156 101.417969 C 1181.582031 96.847656 1186.417969 95.695312 1185.757812 103.167969 C 1185.523438 105.84375 1184.933594 107.136719 1182.871094 110.933594 L 1185.589844 116.9375 C 1197.996094 112.90625 1202.191406 93.601562 1188.953125 88.503906 C 1182.628906 64.078125 1171.933594 60.585938 1154.75 59.152344 C 1139.800781 57.351562 1129.929688 82.386719 1149.886719 86.449219 Z M 1149.886719 86.449219 " fill-opacity="1" fill-rule="evenodd"/></g></g></g></g><g clip-path="url(#5f7b8eead2)"><g clip-path="url(#7d2d7b5bd5)"><g clip-path="url(#6747d7a13f)"><g clip-path="url(#ddb034c136)"><path stroke-linecap="round" transform="matrix(0.567786, 0.12576, -0.125844, 0.568167, 866.078094, -22.074905)" fill="none" stroke-linejoin="round" d="M 482.699914 365.373718 C 493.55727 346.071319 502.771064 321.433186 503.088493 294.556593 " stroke="#0f0000" stroke-width="1" stroke-opacity="1" stroke-miterlimit="4"/></g></g></g></g><g clip-path="url(#0233cc4f52)"><g clip-path="url(#b5a808a771)"><g clip-path="url(#d8f8b74742)"><g clip-path="url(#edbd68c025)"><path stroke-linecap="round" transform="matrix(0.567786, 0.12576, -0.125844, 0.568167, 866.078094, -22.074905)" fill="none" stroke-linejoin="round" d="M 497.136013 645.181467 L 537.695183 519.449635 " stroke="#000000" stroke-width="1" stroke-opacity="1" stroke-miterlimit="4"/></g></g></g></g><g clip-path="url(#bcb6a370f8)"><g clip-path="url(#7d98e4cf74)"><g clip-path="url(#797e76c1d7)"><g clip-path="url(#571a5556bb)"><path stroke-linecap="round" transform="matrix(0.567786, 0.12576, -0.125844, 0.568167, 866.078094, -22.074905)" fill="none" stroke-linejoin="round" d="M 624.55262 508.275153 C 605.278699 540.447669 622.61313 591.000366 638.352581 596.798037 " stroke="#000000" stroke-width="1" stroke-opacity="1" stroke-miterlimit="4"/></g></g></g></g><g clip-path="url(#ec9b10d0bc)"><g clip-path="url(#b006958cb4)"><g clip-path="url(#6a664cdcb5)"><g clip-path="url(#4a1dffa5ac)"><path stroke-linecap="round" transform="matrix(0.567786, 0.12576, -0.125844, 0.568167, 866.078094, -22.074905)" fill="none" stroke-linejoin="round" d="M 529.193306 83.650559 L 543.676036 84.150625 " stroke="#000000" stroke-width="2" stroke-opacity="1" stroke-miterlimit="4"/></g></g></g></g><g clip-path="url(#f498e51f8f)"><g clip-path="url(#cfc398590f)"><g clip-path="url(#2ec677a1ae)"><g clip-path="url(#560471ff99)"><path fill="#000000" d="M 1157.886719 96.472656 C 1158.1875 96.550781 1158.460938 96.679688 1158.710938 96.867188 C 1158.957031 97.054688 1159.160156 97.28125 1159.316406 97.546875 C 1159.472656 97.8125 1159.574219 98.101562 1159.617188 98.40625 C 1159.660156 98.714844 1159.644531 99.019531 1159.566406 99.320312 C 1159.488281 99.617188 1159.359375 99.894531 1159.171875 100.140625 C 1158.984375 100.386719 1158.757812 100.589844 1158.492188 100.75 C 1158.226562 100.90625 1157.9375 101.007812 1157.632812 101.050781 C 1157.324219 101.09375 1157.023438 101.074219 1156.722656 101 C 1156.421875 100.921875 1156.148438 100.789062 1155.902344 100.601562 C 1155.652344 100.417969 1155.449219 100.191406 1155.292969 99.921875 C 1155.136719 99.65625 1155.035156 99.367188 1154.992188 99.0625 C 1154.949219 98.753906 1154.964844 98.453125 1155.042969 98.152344 C 1155.121094 97.851562 1155.253906 97.578125 1155.441406 97.332031 C 1155.625 97.082031 1155.851562 96.882812 1156.121094 96.722656 C 1156.386719 96.566406 1156.671875 96.464844 1156.980469 96.421875 C 1157.285156 96.378906 1157.589844 96.394531 1157.886719 96.472656 Z M 1157.886719 96.472656 " fill-opacity="1" fill-rule="evenodd"/></g></g></g></g><g clip-path="url(#47e2bc58fe)"><g clip-path="url(#a139518bb1)"><g clip-path="url(#6817631e68)"><g clip-path="url(#ff9561c82f)"><path fill="#000000" d="M 1173.84375 126.199219 C 1176.746094 124.859375 1179.519531 123.285156 1182.164062 121.488281 C 1182.707031 128.128906 1177.949219 135.257812 1172.546875 140.058594 Z M 1173.84375 126.199219 " fill-opacity="1" fill-rule="evenodd"/></g></g></g></g><g clip-path="url(#7729c87c53)"><g clip-path="url(#07d4acbd53)"><g clip-path="url(#2016f1953e)"><g clip-path="url(#7e0710749b)"><path fill="#000000" d="M 1096.878906 356.261719 C 1066.730469 352.632812 1022.816406 334.589844 987.738281 316.585938 C 968 380.101562 930.210938 441.691406 874.695312 496.351562 C 890.898438 505.109375 908.554688 510.816406 927.398438 514.039062 L 1004.238281 356.699219 L 1069.65625 403.472656 Z M 1096.878906 356.261719 " fill-opacity="1" fill-rule="nonzero"/></g></g></g></g><g clip-path="url(#29316dcfa2)"><g clip-path="url(#06994701b6)"><g clip-path="url(#32bb23b61d)"><g clip-path="url(#7781873a38)"><path stroke-linecap="round" transform="matrix(0.567786, 0.12576, -0.125844, 0.568167, 866.078094, -22.074905)" fill="none" stroke-linejoin="round" d="M 524.040057 262.720886 C 540.983226 302.848034 562.432596 328.261778 591.035871 335.667244 " stroke="#000000" stroke-width="1" stroke-opacity="1" stroke-miterlimit="4"/></g></g></g></g><g clip-path="url(#d34f8af237)"><g clip-path="url(#ebe6cd1935)"><g clip-path="url(#cd34011808)"><g clip-path="url(#13dfd02459)"><path stroke-linecap="round" transform="matrix(0.567786, 0.12576, -0.125844, 0.568167, 866.078094, -22.074905)" fill="none" stroke-linejoin="round" d="M 578.107626 99.135016 C 576.095015 94.369107 576.869338 90.38199 579.209833 87.780757 " stroke="#000000" stroke-width="1" stroke-opacity="1" stroke-miterlimit="4"/></g></g></g></g><path fill="#f7f7e9" d="M 146.410156 48.972656 C 138.964844 37.992188 135.238281 25.007812 135.765625 11.898438 L 136.296875 -1.214844 C 136.539062 -7.121094 134.710938 -12.960938 131.128906 -17.761719 L 129.660156 -19.726562 C 123.21875 -28.351562 113.441406 -33.980469 102.695312 -35.253906 C 94.90625 -36.171875 87.054688 -34.578125 80.332031 -30.71875 C 70.253906 -24.925781 58.855469 -21.679688 47.136719 -21.261719 L 31.734375 -20.699219 C 19.957031 -20.273438 8.464844 -17.21875 -1.878906 -11.765625 C -10.785156 -7.066406 -16.953125 1.421875 -18.621094 11.265625 C -20.25 20.886719 -17.222656 30.761719 -10.4375 37.972656 L 3.414062 52.707031 C 5.816406 55.261719 8.0625 57.941406 10.160156 60.738281 L 26.574219 82.699219 C 29.648438 86.8125 33.140625 90.601562 37.003906 94.007812 L 43.128906 99.40625 C 51.519531 106.8125 62.324219 110.980469 73.515625 111.140625 C 81.363281 111.246094 88.921875 108.375 94.605469 103.113281 L 98.800781 99.234375 C 105.023438 93.472656 112.445312 89.113281 120.578125 86.453125 L 120.816406 86.375 C 130.214844 83.300781 138.9375 78.558594 146.570312 72.386719 C 150.003906 69.605469 151.703125 65.261719 151.0625 60.894531 C 150.429688 56.640625 148.84375 52.558594 146.410156 48.972656 Z M 146.410156 48.972656 " fill-opacity="1" fill-rule="nonzero"/><g clip-path="url(#82c064d36d)"><path fill="#000000" d="M 73.953125 112.488281 C 73.800781 112.488281 73.648438 112.488281 73.496094 112.488281 C 61.976562 112.328125 50.878906 108.039062 42.246094 100.421875 L 36.125 95.019531 C 32.203125 91.558594 28.628906 87.6875 25.503906 83.507812 L 9.089844 61.546875 C 7.035156 58.792969 4.796875 56.132812 2.441406 53.625 L -11.410156 38.894531 C -18.429688 31.421875 -21.617188 21.011719 -19.9375 11.046875 C -18.1875 0.726562 -11.839844 -8.019531 -2.5 -12.945312 C 7.957031 -18.460938 19.777344 -21.605469 31.6875 -22.035156 L 47.089844 -22.585938 C 58.546875 -23 69.8125 -26.214844 79.664062 -31.875 C 86.59375 -35.851562 94.832031 -37.527344 102.855469 -36.578125 C 113.925781 -35.265625 124.089844 -29.421875 130.734375 -20.527344 L 132.203125 -18.558594 C 135.957031 -13.535156 137.886719 -7.359375 137.632812 -1.167969 L 137.097656 11.945312 C 136.578125 24.851562 140.179688 37.398438 147.507812 48.21875 C 150.042969 51.953125 151.726562 56.273438 152.371094 60.699219 C 153.070312 65.5 151.164062 70.375 147.394531 73.421875 C 139.613281 79.71875 130.800781 84.5 121.222656 87.640625 L 120.984375 87.71875 C 112.988281 90.339844 105.824219 94.539062 99.699219 100.214844 L 95.503906 104.09375 C 89.65625 109.519531 82.011719 112.488281 73.953125 112.488281 Z M 98.425781 -34.167969 C 92.316406 -34.167969 86.246094 -32.578125 80.992188 -29.554688 C 70.765625 -23.679688 59.074219 -20.347656 47.183594 -19.914062 L 31.78125 -19.367188 C 20.269531 -18.953125 8.84375 -15.914062 -1.253906 -10.585938 C -9.851562 -6.054688 -15.699219 1.992188 -17.300781 11.492188 C -18.847656 20.640625 -15.914062 30.199219 -9.457031 37.066406 L 4.394531 51.800781 C 6.816406 54.378906 9.117188 57.121094 11.230469 59.945312 L 27.648438 81.90625 C 30.660156 85.941406 34.109375 89.671875 37.890625 93.011719 L 44.015625 98.414062 C 52.171875 105.613281 62.65625 109.660156 73.535156 109.8125 C 81.097656 109.921875 88.242188 107.191406 93.699219 102.140625 L 97.894531 98.261719 C 104.300781 92.328125 111.792969 87.925781 120.15625 85.1875 L 120.398438 85.105469 C 129.667969 82.074219 138.191406 77.441406 145.722656 71.347656 C 148.808594 68.847656 150.3125 65.011719 149.738281 61.078125 C 149.148438 57.046875 147.617188 53.113281 145.308594 49.707031 C 137.652344 38.414062 133.890625 25.3125 134.4375 11.832031 L 134.96875 -1.28125 C 135.195312 -6.867188 133.457031 -12.441406 130.066406 -16.972656 L 128.601562 -18.941406 C 122.382812 -27.234375 112.886719 -32.699219 102.535156 -33.925781 C 101.175781 -34.085938 99.800781 -34.167969 98.425781 -34.167969 Z M 98.425781 -34.167969 " fill-opacity="1" fill-rule="nonzero"/></g><path stroke-linecap="butt" transform="matrix(0.66698, 0, 0, 0.666667, -20.376021, -36.833333)" fill-opacity="1" fill="#ffc613" fill-rule="nonzero" stroke-linejoin="miter" d="M 182.17185 104.720704 C 182.17185 106.197267 182.095714 107.66797 181.955155 109.132814 C 181.808739 110.597657 181.592044 112.056642 181.30507 113.503908 C 181.018095 114.951173 180.660841 116.375001 180.233307 117.787111 C 179.805774 119.19922 179.307961 120.587892 178.745725 121.947267 C 178.177632 123.312501 177.550973 124.64258 176.854035 125.943361 C 176.157096 127.244142 175.401592 128.503908 174.581664 129.734377 C 173.761737 130.958986 172.8891 132.14258 171.95204 133.279299 C 171.01498 134.421877 170.02521 135.51172 168.982731 136.554689 C 167.940252 137.597658 166.850919 138.587892 165.708877 139.519533 C 164.572692 140.457033 163.389654 141.335939 162.159763 142.150393 C 160.935728 142.970705 159.670697 143.726564 158.370526 144.42383 C 157.070356 145.121096 155.740902 145.748049 154.376308 146.310549 C 153.017571 146.878908 151.629551 147.371096 150.218104 147.79883 C 148.806658 148.226565 147.377641 148.589846 145.931055 148.876955 C 144.484469 149.164065 143.032026 149.380861 141.562013 149.521486 C 140.097857 149.667971 138.621987 149.738283 137.151974 149.738283 C 135.676105 149.738283 134.206092 149.667971 132.736079 149.521486 C 131.271923 149.380861 129.813623 149.164065 128.367037 148.876955 C 126.92045 148.589846 125.491434 148.226565 124.079987 147.79883 C 122.668541 147.371096 121.286377 146.878908 119.921784 146.310549 C 118.55719 145.748049 117.227736 145.121096 115.927565 144.42383 C 114.627395 143.726564 113.362364 142.970705 112.138329 142.150393 C 110.914294 141.335939 109.731256 140.457033 108.589214 139.519533 C 107.447172 138.587892 106.35784 137.597658 105.315361 136.554689 C 104.272882 135.51172 103.283112 134.421877 102.351909 133.279299 C 101.414849 132.14258 100.536355 130.958986 99.716428 129.734377 C 98.8965 128.503908 98.140995 127.244142 97.444057 125.943361 C 96.752975 124.64258 96.12046 123.312501 95.558224 121.947267 C 94.990131 120.587892 94.498175 119.19922 94.070641 117.787111 C 93.643107 116.375001 93.279997 114.951173 92.993022 113.503908 C 92.706047 112.056642 92.489352 110.597657 92.348793 109.132814 C 92.202378 107.66797 92.132098 106.197267 92.132098 104.720704 C 92.132098 103.244142 92.202378 101.773439 92.348793 100.308595 C 92.489352 98.837892 92.706047 97.384767 92.993022 95.937501 C 93.279997 94.490235 93.643107 93.060548 94.070641 91.654298 C 94.498175 90.242188 94.990131 88.853516 95.558224 87.494141 C 96.12046 86.128907 96.752975 84.798829 97.444057 83.498047 C 98.140995 82.197266 98.8965 80.931641 99.716428 79.707032 C 100.536355 78.482422 101.414849 77.298829 102.351909 76.16211 C 103.283112 75.019532 104.272882 73.929688 105.315361 72.886719 C 106.35784 71.84375 107.447172 70.853516 108.589214 69.921875 C 109.731256 68.984375 110.914294 68.105469 112.138329 67.285157 C 113.362364 66.470703 114.627395 65.708985 115.927565 65.017578 C 117.227736 64.320313 118.55719 63.69336 119.921784 63.125 C 121.286377 62.5625 122.668541 62.064453 124.079987 61.636719 C 125.491434 61.208985 126.92045 60.851563 128.367037 60.564453 C 129.813623 60.277344 131.271923 60.060547 132.736079 59.914063 C 134.206092 59.773438 135.676105 59.697266 137.151974 59.697266 C 138.621987 59.697266 140.097857 59.773438 141.562013 59.914063 C 143.032026 60.060547 144.484469 60.277344 145.931055 60.564453 C 147.377641 60.851563 148.806658 61.208985 150.218104 61.636719 C 151.629551 62.064453 153.017571 62.5625 154.376308 63.125 C 155.740902 63.69336 157.070356 64.320313 158.370526 65.017578 C 159.670697 65.708985 160.935728 66.470703 162.159763 67.285157 C 163.389654 68.105469 164.572692 68.984375 165.708877 69.921875 C 166.850919 70.853516 167.940252 71.84375 168.982731 72.886719 C 170.02521 73.929688 171.01498 75.019532 171.95204 76.16211 C 172.8891 77.298829 173.761737 78.482422 174.581664 79.707032 C 175.401592 80.931641 176.157096 82.197266 176.854035 83.498047 C 177.550973 84.798829 178.177632 86.128907 178.745725 87.494141 C 179.307961 88.853516 179.805774 90.242188 180.233307 91.654298 C 180.660841 93.060548 181.018095 94.490235 181.30507 95.937501 C 181.592044 97.384767 181.808739 98.837892 181.955155 100.308595 C 182.095714 101.773439 182.17185 103.244142 182.17185 104.720704 Z M 182.17185 104.720704 " stroke="#000000" stroke-width="4" stroke-opacity="1" stroke-miterlimit="10"/></svg>